Coordinates
version=1
nRows=13
nColumns=40
inDegrees=yes

Units are S.I. units (second, meters, Newtons, ...)
If the header above contains a line with 'inDegrees', this indicates whether rotational values are in degrees (yes) or radians (no).

endheader
time	pelvis_tilt	pelvis_list	pelvis_rotation	pelvis_tx	pelvis_ty	pelvis_tz	hip_flexion_r	hip_adduction_r	hip_rotation_r	knee_angle_r	knee_angle_r_beta	ankle_angle_r	subtalar_angle_r	mtp_angle_r	hip_flexion_l	hip_adduction_l	hip_rotation_l	knee_angle_l	knee_angle_l_beta	ankle_angle_l	subtalar_angle_l	mtp_angle_l	lumbar_extension	lumbar_bending	lumbar_rotation	arm_flex_r	arm_add_r	arm_rot_r	elbow_flex_r	pro_sup_r	wrist_flex_r	wrist_dev_r	arm_flex_l	arm_add_l	arm_rot_l	elbow_flex_l	pro_sup_l	wrist_flex_l	wrist_dev_l
      0.98500000	      0.87554759	      3.60828629	     -0.55330100	      0.63923560	      0.93085190	      0.20661041	     17.16354272	    -14.12106481	    -15.52083520	     66.93843761	      1.16829613	     -7.63046139	    -17.98538018	      0.00000000	     -0.03165687	      5.20064710	    -18.27690486	      8.59995376	      0.15009751	     -1.09070012	      5.31404121	      0.00000000	     -2.10810844	     -5.14409001	     -4.29275943	     28.31716496	    -12.28354556	     28.31716496	     76.30297625	     44.42249277	      0.00000000	      0.00000000	     28.31716496	    -12.28354556	     28.31716496	     76.30297625	     44.42249277	      0.00000000	      0.00000000
      0.99000000	      0.74781648	      3.48251246	     -0.29163783	      0.64536347	      0.93098648	      0.20607485	     17.96305611	    -13.84073883	    -15.68630689	     66.25523806	      1.15637205	     -7.21600227	    -17.90065248	      0.00000000	     -0.45639460	      5.11884234	    -18.18065910	      8.35473824	      0.14581769	     -0.86424322	      5.61799588	      0.00000000	     -2.01888083	     -4.99038915	     -4.35400144	     28.32352980	    -12.28523328	     28.32352980	     76.30139121	     44.42444141	      0.00000000	      0.00000000	     28.32352980	    -12.28523328	     28.32352980	     76.30139121	     44.42444141	      0.00000000	      0.00000000
      0.99500000	      0.64600881	      3.22191343	     -0.04943617	      0.65145500	      0.93115449	      0.20560712	     18.68090124	    -13.37086823	    -15.83520606	     65.43554015	      1.14206562	     -6.65090608	    -17.60694075	      0.00000000	     -0.95200854	      4.88924104	    -18.01070367	      8.00813989	      0.13976841	     -0.60111938	      6.06244018	      0.00000000	     -1.96945757	     -4.68879157	     -4.45398303	     28.33141513	    -12.28732373	     28.33141513	     76.29942910	     44.42684821	      0.00000000	      0.00000000	     28.33141513	    -12.28732373	     28.33141513	     76.29942910	     44.42684821	      0.00000000	      0.00000000
      1.00000000	      1.03048017	      2.50916729	      0.33101617	      0.65759123	      0.93221496	      0.20472045	     18.56240039	    -12.41628672	    -16.28950998	     64.14706584	      1.11957750	     -6.07648851	    -17.02687688	      0.00000000	     -1.96888193	      4.15244953	    -17.79743778	      7.69756322	      0.13434782	     -0.26012678	      6.76872421	      0.00000000	     -2.48146625	     -3.80171883	     -4.70907684	     28.36678416	    -12.29669365	     28.36678416	     76.29065155	     44.43753622	      0.00000000	      0.00000000	     28.36678416	    -12.29669365	     28.36678416	     76.29065155	     44.43753622	      0.00000000	      0.00000000
      1.00500000	      0.97239270	      2.23777678	      0.59949732	      0.66371392	      0.93229862	      0.20419621	     19.14983318	    -11.95221593	    -16.48462575	     63.13437835	      1.10190277	     -5.64365937	    -16.78923833	      0.00000000	     -2.46672492	      3.89407315	    -17.60283374	      7.44110391	      0.12987176	      0.03561501	      7.14033080	      0.00000000	     -2.46902907	     -3.47718418	     -4.82448191	     28.38554347	    -12.30165832	     28.38554347	     76.28601284	     44.44313181	      0.00000000	      0.00000000	     28.38554347	    -12.30165832	     28.38554347	     76.28601284	     44.44313181	      0.00000000	      0.00000000
      1.01000000	      1.15620741	      1.82648853	      0.95116112	      0.66976931	      0.93275650	      0.20345343	     19.33483094	    -11.34874557	    -16.80451267	     61.87517725	      1.07992557	     -5.24078407	    -16.43520103	      0.00000000	     -3.19389973	      3.46818982	    -17.38905575	      7.23573283	      0.12628736	      0.34044478	      7.53782638	      0.00000000	     -2.74445006	     -2.94645296	     -4.98404699	     28.41882123	    -12.31045794	     28.41882123	     76.27780909	     44.45294821	      0.00000000	      0.00000000	     28.41882123	    -12.31045794	     28.41882123	     76.27780909	     44.45294821	      0.00000000	      0.00000000
      1.01500000	      1.25327986	      1.47192396	      1.28276073	      0.67589319	      0.93297391	      0.20280032	     19.62241541	    -10.82229990	    -17.13534454	     60.59882840	      1.05764908	     -4.93195198	    -16.20713563	      0.00000000	     -3.83114288	      3.09987410	    -17.13602339	      7.02815238	      0.12266440	      0.68100547	      7.87795376	      0.00000000	     -2.90348299	     -2.50733770	     -5.14561008	     28.46462012	    -12.32255008	     28.46462012	     76.26658047	     44.46619153	      0.00000000	      0.00000000	     28.46462012	    -12.32255008	     28.46462012	     76.26658047	     44.46619153	      0.00000000	      0.00000000
      1.02000000	      1.12462407	      1.52404193	      1.52179920	      0.68184418	      0.93257368	      0.20243178	     20.32516330	    -10.72415101	    -17.14301430	     59.56908411	      1.03967665	     -4.60051795	    -16.02556790	      0.00000000	     -4.16219154	      3.16919280	    -17.01612941	      6.91439808	      0.12067901	      0.91103886	      8.03980394	      0.00000000	     -2.84322290	     -2.51374741	     -5.14523057	     28.47065720	    -12.32414238	     28.47065720	     76.26510562	     44.46791577	      0.00000000	      0.00000000	     28.47065720	    -12.32414238	     28.47065720	     76.26510562	     44.46791577	      0.00000000	      0.00000000
      1.02500000	      1.35520440	      0.97200514	      1.91517565	      0.68796265	      0.93291826	      0.20157440	     20.30596277	     -9.97412061	    -17.52774531	     57.98665731	      1.01205809	     -4.20177852	    -15.51816502	      0.00000000	     -4.94838854	      2.58239201	    -16.64814595	      6.66816678	      0.11638147	      1.27654105	      8.36393732	      0.00000000	     -3.14439232	     -1.79579735	     -5.33286525	     28.50848325	    -12.33411198	     28.50848325	     76.25589002	     44.47860682	      0.00000000	      0.00000000	     28.50848325	    -12.33411198	     28.50848325	     76.25589002	     44.47860682	      0.00000000	      0.00000000
      1.03000000	      1.21705643	      1.07884251	      2.13822710	      0.69398428	      0.93234033	      0.20126778	     20.96950429	     -9.95543974	    -17.54521699	     56.85447376	      0.99229776	     -3.93470771	    -15.36893894	      0.00000000	     -5.26302250	      2.69849521	    -16.50874911	      6.58693593	      0.11496372	      1.53046375	      8.49752245	      0.00000000	     -3.06038035	     -1.86810437	     -5.31471035	     28.51401560	    -12.33556882	     28.51401560	     76.25454622	     44.48015446	      0.00000000	      0.00000000	     28.51401560	    -12.33556882	     28.51401560	     76.25454622	     44.48015446	      0.00000000	      0.00000000
      1.03500000	      1.46760001	      0.50065873	      2.56623900	      0.70011342	      0.93258624	      0.20036024	     20.84147729	     -9.18351868	    -17.96689147	     55.07533822	      0.96124599	     -3.69847893	    -14.96289215	      0.00000000	     -6.04193122	      2.06510938	    -16.07469235	      6.38132366	      0.11137511	      1.92708648	      8.71101399	      0.00000000	     -3.37486367	     -1.10419915	     -5.54590742	     28.55288896	    -12.34579878	     28.55288896	     76.24512747	     44.49092458	      0.00000000	      0.00000000	     28.55288896	    -12.34579878	     28.55288896	     76.24512747	     44.49092458	      0.00000000	      0.00000000
      1.04000000	      1.32108510	      0.68565303	      2.78429429	      0.70613046	      0.93180874	      0.20005601	     21.47800835	     -9.27576484	    -17.96918769	     53.87880579	      0.94036256	     -3.48268227	    -14.83114075	      0.00000000	     -6.33427112	      2.26103808	    -15.93655884	      6.33417901	      0.11055228	      2.18855804	      8.82243778	      0.00000000	     -3.28083058	     -1.25178145	     -5.50825396	     28.55769133	    -12.34706133	     28.55769133	     76.24396779	     44.49223997	      0.00000000	      0.00000000	     28.55769133	    -12.34706133	     28.55769133	     76.24396779	     44.49223997	      0.00000000	      0.00000000
      1.04500000	      1.17779800	      0.83603663	      2.98924005	      0.71220348	      0.93096655	      0.19974655	     22.07005158	     -9.33810031	    -17.99083283	     52.61252613	      0.91826181	     -3.24675360	    -14.65253352	      0.00000000	     -6.63989410	      2.42019432	    -15.79181783	      6.28151601	      0.10963314	      2.47332140	      8.91744792	      0.00000000	     -3.18173457	     -1.34634703	     -5.48068843	     28.56147764	    -12.34805655	     28.56147764	     76.24305409	     44.49327475	      0.00000000	      0.00000000	     28.56147764	    -12.34805655	     28.56147764	     76.24305409	     44.49327475	      0.00000000	      0.00000000
